<svg width="250" height="250" viewBox="0 0 250 250" fill="none" xmlns="http://www.w3.org/2000/svg">
<rect width="250" height="250" fill="url(#paint0_linear)"/>
<g filter="url(#filter0_i)">
<path d="M78.7583 87.1671C85.9839 82.0054 94.7511 79.2177 103.758 79.2177C112.766 79.2177 121.533 82.0054 128.758 87.1671V87.1671C135.984 92.3288 144.751 95.1166 153.758 95.1166C162.766 95.1166 171.533 92.3288 178.758 87.1671V152.071C171.533 157.232 162.766 160.02 153.758 160.02C144.751 160.02 135.984 157.232 128.758 152.071C121.533 146.909 112.766 144.121 103.758 144.121C94.7511 144.121 85.9839 146.909 78.7583 152.071" stroke="white" stroke-width="15" stroke-linecap="round" stroke-linejoin="round"/>
<path d="M78.7583 179.218V79.3663" stroke="white" stroke-width="15" stroke-linecap="round" stroke-linejoin="round"/>
</g>
<defs>
<filter id="filter0_i" x="71.2578" y="71.7177" width="115.001" height="119" filterUnits="userSpaceOnUse" color-interpolation-filters="sRGB">
<feFlood flood-opacity="0" result="BackgroundImageFix"/>
<feBlend mode="normal" in="SourceGraphic" in2="BackgroundImageFix" result="shape"/>
<feColorMatrix in="SourceAlpha" type="matrix" values="0 0 0 0 0 0 0 0 0 0 0 0 0 0 0 0 0 0 127 0" result="hardAlpha"/>
<feOffset dy="4"/>
<feGaussianBlur stdDeviation="2"/>
<feComposite in2="hardAlpha" operator="arithmetic" k2="-1" k3="1"/>
<feColorMatrix type="matrix" values="0 0 0 0 0 0 0 0 0 0 0 0 0 0 0 0 0 0 0.25 0"/>
<feBlend mode="normal" in2="shape" result="effect1_innerShadow"/>
</filter>
<linearGradient id="paint0_linear" x1="0" y1="0" x2="250" y2="250" gradientUnits="userSpaceOnUse">
<stop stop-color="#FDC206"/>
<stop offset="1" stop-color="#947922"/>
</linearGradient>
</defs>
</svg>
